<svg xmlns="http://www.w3.org/2000/svg" width="344" height="310" viewBox="0 0 344 310">
<g>
<path d="M 270.75 301.35 C267.86,301.70 261.57,301.99 256.76,301.99 L 248.01 302.00 L 245.01 297.85 C242.14,293.89 241.57,292.57 241.92,290.64 C242.00,290.17 241.65,289.27 241.13,288.64 C238.91,285.93 230.70,269.00 228.95,263.50 C226.44,255.68 226.51,254.18 229.42,252.85 C233.65,250.93 240.37,252.66 245.69,257.05 C248.31,259.22 251.11,261.00 251.90,261.00 C252.69,261.00 253.07,261.27 252.74,261.59 C252.42,261.92 254.14,264.23 256.57,266.74 C259.01,269.24 261.00,271.65 261.00,272.09 C261.00,272.53 264.38,278.64 268.50,285.66 C272.62,292.69 276.00,298.95 276.00,299.58 C276.00,300.21 273.65,301.00 270.75,301.35 ZM 46.78 301.16 C46.08,301.60 39.73,301.98 32.68,301.98 L 19.87 302.00 L 20.56 299.75 C21.54,296.58 23.62,292.63 27.58,286.44 C29.46,283.50 31.00,280.78 31.00,280.39 C31.00,280.01 32.12,278.21 33.50,276.41 C34.88,274.61 36.00,272.86 36.00,272.52 C36.00,272.19 36.94,270.92 38.08,269.71 C39.23,268.49 40.79,266.32 41.55,264.87 C43.68,260.81 50.15,254.00 51.91,253.97 C52.79,253.95 54.37,253.28 55.44,252.47 C57.81,250.68 60.69,250.56 61.25,252.24 C61.57,253.22 62.23,253.22 64.40,252.23 C70.11,249.63 70.51,253.87 65.55,264.33 C63.65,268.33 62.13,272.48 62.18,273.55 C62.28,275.72 48.80,299.88 46.78,301.16 ZM 193.46 122.88 C191.24,123.29 188.81,124.00 188.06,124.46 C186.94,125.15 186.80,124.19 187.26,119.12 C187.56,115.71 188.25,112.38 188.77,111.71 C189.30,111.05 189.64,109.51 189.53,108.30 C189.43,107.08 189.67,106.29 190.07,106.54 C190.46,106.79 191.06,106.29 191.38,105.44 C191.75,104.48 191.57,104.15 190.89,104.57 C190.21,104.99 190.27,104.35 191.05,102.87 C192.72,99.70 205.24,77.62 205.69,77.06 C205.89,76.82 206.67,77.27 207.44,78.06 C209.72,80.43 228.67,114.17 228.12,114.89 C227.96,115.10 228.43,115.66 229.16,116.12 C229.97,116.63 230.05,116.98 229.37,116.98 C228.75,116.99 227.69,116.33 227.01,115.51 C225.74,113.98 224.00,114.33 224.00,116.12 C224.00,116.67 224.48,116.82 225.07,116.45 C225.66,116.09 225.55,116.74 224.83,117.91 C224.10,119.07 222.60,120.31 221.50,120.66 C218.24,121.70 209.86,121.90 207.48,120.99 C206.21,120.51 203.60,120.58 201.38,121.15 C199.25,121.70 195.68,122.48 193.46,122.88 ZM 193.91 80.96 C189.93,88.13 186.33,94.00 185.90,94.00 C184.04,94.00 183.86,90.81 184.65,72.20 C185.11,61.36 185.47,50.19 185.45,47.36 C185.41,43.78 185.76,42.36 186.59,42.67 C187.24,42.92 190.78,48.71 194.46,55.53 L 201.13 67.93 ZM 186.00 263.00 C186.82,263.53 187.01,263.98 186.42,263.98 C185.82,263.99 185.04,263.70 184.68,263.34 C184.07,262.74 184.84,227.65 185.54,224.09 C185.71,223.22 185.88,220.57 185.92,218.21 C185.99,214.45 186.21,214.04 187.75,214.88 C189.65,215.92 200.07,234.31 200.27,236.99 C200.48,239.76 187.90,262.00 186.11,262.02 C184.70,262.03 184.69,262.15 186.00,263.00 Z" fill="rgb(67,38,92)"/>
<path d="M 193.46 122.88 C195.68,122.48 199.25,121.70 201.38,121.15 C203.60,120.58 206.21,120.51 207.48,120.99 C209.86,121.90 218.24,121.70 221.50,120.66 C222.60,120.31 224.10,119.07 224.83,117.91 C225.55,116.74 225.66,116.09 225.07,116.45 C224.48,116.82 224.00,116.67 224.00,116.12 C224.00,114.33 225.74,113.98 227.01,115.51 C227.69,116.33 228.75,116.99 229.37,116.98 C230.05,116.98 229.97,116.63 229.16,116.12 C228.43,115.66 227.96,115.10 228.12,114.89 C228.40,114.51 223.47,105.30 218.32,96.17 C219.95,99.03 221.79,102.29 223.88,106.00 C226.21,110.12 230.91,118.23 234.34,124.01 C244.74,141.56 248.96,149.85 247.70,150.27 C246.91,150.53 247.10,151.50 248.31,153.35 C249.29,154.84 249.84,156.46 249.53,156.95 C249.23,157.44 249.56,158.44 250.26,159.17 C250.97,159.90 251.51,160.95 251.47,161.50 C251.31,163.80 249.79,167.00 248.87,167.00 C248.33,167.00 248.20,167.52 248.60,168.15 C249.02,168.84 248.87,169.04 248.22,168.64 C247.63,168.27 246.86,168.42 246.51,168.98 C245.18,171.14 240.50,169.99 237.38,166.74 C235.67,164.96 231.71,161.02 228.58,158.00 C225.45,154.98 222.20,151.19 221.34,149.59 C219.58,146.30 218.56,144.92 214.99,141.05 C213.61,139.56 211.24,136.46 209.73,134.17 C208.21,131.87 206.64,130.00 206.24,130.01 C205.83,130.01 204.56,131.70 203.40,133.76 C196.43,146.21 193.68,150.54 191.97,151.73 C190.92,152.47 188.49,155.43 186.58,158.32 C181.82,165.49 179.19,167.68 174.50,168.40 C171.09,168.91 170.04,168.60 167.34,166.25 C164.75,163.99 164.09,162.56 163.66,158.23 C163.21,153.57 163.56,152.17 166.71,146.23 C168.68,142.53 171.92,136.35 173.91,132.50 C175.91,128.65 178.26,124.38 179.14,123.00 C180.02,121.62 186.28,110.82 193.06,99.00 C195.90,94.04 198.55,89.43 200.68,85.72 C196.84,92.47 192.04,100.99 191.05,102.87 C190.27,104.35 190.21,104.99 190.89,104.57 C191.57,104.15 191.75,104.48 191.38,105.44 C191.06,106.29 190.46,106.79 190.07,106.54 C189.67,106.29 189.43,107.08 189.53,108.30 C189.64,109.51 189.30,111.05 188.77,111.71 C188.25,112.38 187.56,115.71 187.26,119.12 C186.80,124.19 186.94,125.15 188.06,124.46 C188.81,124.00 191.24,123.29 193.46,122.88 ZM 57.29 284.01 C60.04,278.90 62.22,274.43 62.18,273.55 C62.13,272.48 63.65,268.33 65.55,264.33 C70.51,253.87 70.11,249.63 64.40,252.23 C62.23,253.22 61.57,253.22 61.25,252.24 C60.69,250.56 57.81,250.68 55.44,252.47 C54.37,253.28 52.79,253.95 51.91,253.97 C50.15,254.00 43.68,260.81 41.55,264.87 C40.79,266.32 39.23,268.49 38.08,269.71 C36.94,270.92 36.00,272.19 36.00,272.52 C36.00,272.86 34.88,274.61 33.50,276.41 C32.12,278.21 31.00,280.01 31.00,280.39 C31.00,280.78 29.46,283.50 27.58,286.44 C23.62,292.63 21.54,296.58 20.56,299.75 L 20.01 301.52 C19.17,301.38 18.63,301.22 18.51,301.02 C17.79,299.86 18.27,298.89 26.98,284.00 C30.68,277.67 37.65,265.76 42.47,257.52 C47.28,249.27 52.52,241.20 54.11,239.58 C55.70,237.95 57.00,236.24 57.00,235.77 C57.00,234.93 59.59,231.06 63.50,226.06 C64.60,224.65 68.80,220.23 72.84,216.22 C79.51,209.61 80.51,208.97 83.84,209.19 C89.46,209.55 92.71,211.57 93.22,215.02 C93.46,216.66 93.32,218.00 92.92,218.00 C92.52,218.00 92.71,219.12 93.34,220.49 C94.45,222.88 94.88,222.98 103.67,222.99 C114.35,223.00 116.00,223.45 115.99,226.36 C115.98,229.20 111.79,237.93 109.08,240.75 C106.84,243.08 102.64,243.54 88.00,243.06 C84.69,242.95 81.86,243.39 80.88,244.19 C79.99,244.91 77.12,249.55 74.49,254.50 C68.10,266.57 65.04,271.91 62.45,275.50 C61.60,276.67 59.55,280.07 57.29,284.01 ZM 259.16 269.55 C258.43,268.70 257.54,267.73 256.57,266.74 C254.14,264.23 252.42,261.92 252.74,261.59 C253.07,261.27 252.69,261.00 251.90,261.00 C251.11,261.00 248.31,259.22 245.69,257.05 C240.37,252.66 233.65,250.93 229.42,252.85 C226.51,254.18 226.44,255.68 228.95,263.50 C230.70,269.00 238.91,285.93 241.13,288.64 C241.65,289.27 242.00,290.17 241.92,290.64 C241.77,291.49 241.79,292.21 242.10,293.10 C232.57,277.29 209.57,236.26 209.46,234.50 C209.34,232.50 209.15,231.93 206.07,224.50 C202.07,214.84 200.57,209.03 201.75,207.85 C202.64,206.96 203.26,206.97 204.36,207.89 C205.18,208.56 206.90,208.81 208.31,208.46 C209.86,208.07 211.73,208.44 213.24,209.42 C214.57,210.29 215.96,210.71 216.33,210.34 C216.70,209.97 217.00,210.19 217.00,210.83 C217.00,211.48 217.68,212.00 218.50,212.00 C219.32,212.00 220.86,212.86 221.92,213.92 C222.97,214.97 224.10,215.57 224.42,215.25 C224.74,214.93 225.00,215.22 225.00,215.89 C225.00,216.57 225.34,216.94 225.75,216.72 C226.82,216.15 229.44,219.23 229.85,221.54 C230.15,223.20 242.27,242.51 243.95,244.00 C244.64,244.60 250.36,254.10 255.40,263.00 C256.80,265.48 258.24,267.98 259.16,269.55 ZM 182.01 272.25 C178.31,279.91 177.56,272.71 178.90,242.73 C179.52,228.85 180.28,215.45 180.58,212.95 C181.23,207.56 182.50,205.08 183.87,206.51 C184.48,207.15 189.33,215.70 193.60,223.49 C191.06,219.14 188.59,215.34 187.75,214.88 C186.21,214.04 185.99,214.45 185.92,218.21 C185.88,220.57 185.71,223.22 185.54,224.09 C184.84,227.65 184.07,262.74 184.68,263.34 C185.04,263.70 185.82,263.99 186.42,263.98 C186.42,263.98 186.43,263.98 186.43,263.98 C185.69,265.14 185.12,265.90 184.81,266.10 C184.29,266.43 183.75,267.33 183.60,268.10 C183.45,268.87 182.73,270.74 182.01,272.25 ZM 182.92 101.25 C182.24,102.76 181.36,104.00 180.96,104.00 C178.39,104.00 178.17,100.36 179.03,71.98 C179.90,43.40 180.20,39.10 181.50,37.00 C181.84,36.45 181.61,36.00 181.00,36.00 C180.39,36.00 180.16,35.55 180.50,35.00 C180.84,34.45 181.48,34.00 181.92,34.00 C182.36,34.00 186.87,41.63 191.94,50.95 L 192.46 51.89 C189.58,46.77 187.12,42.88 186.59,42.67 C185.76,42.36 185.41,43.78 185.45,47.36 C185.47,50.19 185.11,61.36 184.65,72.20 C183.86,90.81 184.04,94.00 185.90,94.00 C186.32,94.00 189.75,88.42 193.61,81.50 L 192.67 83.20 C187.99,91.61 183.60,99.74 182.92,101.25 ZM 186.00 263.00 C184.69,262.15 184.70,262.03 186.11,262.02 C186.95,262.01 190.18,257.08 193.35,251.57 C190.94,256.23 188.41,260.84 186.68,263.59 C186.57,263.42 186.34,263.22 186.00,263.00 ZM 271.37 290.65 C270.49,289.08 269.52,287.40 268.50,285.66 C265.89,281.22 263.59,277.15 262.24,274.64 C264.95,279.20 268.54,285.51 271.37,290.65 ZM 193.91 80.96 L 201.13 67.93 L 196.32 58.98 L 201.17 67.90 ZM 200.22 236.66 C200.05,235.93 199.52,234.66 198.76,233.09 C199.56,234.63 200.10,235.73 200.26,236.15 C200.29,236.24 200.27,236.41 200.22,236.66 ZM 27.08 301.99 L 32.68 301.98 C33.90,301.98 35.09,301.97 36.23,301.95 C33.20,302.04 29.96,302.06 27.08,301.99 ZM 207.49 78.12 C207.47,78.10 207.45,78.08 207.44,78.06 C206.73,77.33 206.01,76.89 205.75,77.02 C206.05,76.67 206.52,76.86 207.49,78.12 ZM 212.08 85.34 C211.18,83.82 210.35,82.45 209.65,81.32 C210.33,82.41 211.13,83.74 212.08,85.34 Z" fill="rgb(87,58,116)"/>
<path d="M 242.91 242.64 C242.91,242.66 242.90,242.69 242.91,242.71 C239.48,238.04 230.11,223.00 229.85,221.54 C229.44,219.23 226.82,216.15 225.75,216.72 C225.34,216.94 225.00,216.57 225.00,215.89 C225.00,215.22 224.74,214.93 224.42,215.25 C224.10,215.57 222.97,214.97 221.92,213.92 C220.86,212.86 219.32,212.00 218.50,212.00 C217.68,212.00 217.00,211.48 217.00,210.83 C217.00,210.19 216.70,209.97 216.33,210.34 C215.96,210.71 214.57,210.29 213.24,209.42 C211.73,208.44 209.86,208.07 208.31,208.46 C206.90,208.81 205.18,208.56 204.36,207.89 C203.26,206.97 202.64,206.96 201.75,207.85 C200.57,209.03 202.07,214.84 206.07,224.50 C209.15,231.93 209.34,232.50 209.46,234.50 C209.53,235.58 218.16,251.34 227.04,267.05 C219.18,253.31 208.03,233.89 201.16,222.00 C193.70,209.07 185.66,195.15 183.31,191.05 C180.96,186.95 178.37,182.94 177.56,182.13 C176.26,180.83 175.95,180.94 175.00,183.08 C171.42,191.14 164.94,200.20 159.73,204.44 C156.58,207.01 154.00,208.78 154.00,208.38 C154.00,207.98 152.99,208.52 151.75,209.59 C147.81,212.98 143.62,214.80 141.50,214.03 C140.40,213.63 139.46,212.89 139.42,212.40 C139.37,211.90 138.81,210.23 138.17,208.68 C136.44,204.52 136.75,202.19 139.95,195.03 C141.55,191.47 142.64,188.23 142.39,187.83 C142.14,187.42 145.84,180.43 150.61,172.29 C155.38,164.16 160.12,155.54 161.15,153.14 C163.00,148.83 172.80,132.23 178.05,124.50 C179.15,122.87 183.14,116.17 187.88,108.01 C183.34,115.88 179.79,121.99 179.14,123.00 C178.26,124.38 175.91,128.65 173.91,132.50 C171.92,136.35 168.68,142.53 166.71,146.23 C163.56,152.17 163.21,153.57 163.66,158.23 C164.09,162.56 164.75,163.99 167.34,166.25 C170.04,168.60 171.09,168.91 174.50,168.40 C179.19,167.68 181.82,165.49 186.58,158.32 C188.49,155.43 190.92,152.47 191.97,151.73 C193.21,150.87 195.00,148.34 198.56,142.26 C195.52,147.91 192.58,153.89 191.07,157.69 C188.37,164.45 188.42,166.00 191.35,166.00 C192.65,166.00 194.90,167.11 196.37,168.46 C197.83,169.82 199.58,170.72 200.26,170.47 C201.42,170.05 203.91,173.91 217.00,196.50 C228.70,216.68 233.05,223.85 233.75,224.17 C234.57,224.53 243.04,241.61 242.91,242.64 ZM 209.63 134.02 C209.66,134.07 209.70,134.12 209.73,134.17 C211.24,136.46 213.61,139.56 214.99,141.05 C218.56,144.92 219.58,146.30 221.34,149.59 C222.20,151.19 225.45,154.98 228.58,158.00 C231.71,161.02 235.67,164.96 237.38,166.74 C240.50,169.99 245.18,171.14 246.51,168.98 C246.86,168.42 247.63,168.27 248.22,168.64 C248.87,169.04 249.02,168.84 248.60,168.15 C248.20,167.52 248.33,167.00 248.87,167.00 C249.79,167.00 251.31,163.80 251.47,161.50 C251.51,160.95 250.97,159.90 250.26,159.17 C249.56,158.44 249.23,157.44 249.53,156.95 C249.84,156.46 249.29,154.84 248.31,153.35 C247.10,151.50 246.91,150.53 247.70,150.27 C248.96,149.85 244.74,141.56 234.34,124.01 C230.91,118.23 226.21,110.12 223.88,106.00 C222.03,102.72 220.37,99.78 218.88,97.16 C220.37,99.78 222.03,102.71 223.89,106.00 C226.22,110.12 230.41,117.32 233.19,122.00 C235.98,126.68 240.39,134.32 242.99,139.00 C245.58,143.68 250.76,152.68 254.50,159.00 C258.23,165.32 262.64,172.98 264.30,176.00 C265.95,179.02 268.14,182.69 269.15,184.15 C270.17,185.61 271.00,187.06 271.00,187.36 C271.00,187.66 272.40,190.29 274.11,193.19 C277.39,198.75 278.55,203.15 276.54,202.38 C275.77,202.08 275.40,203.22 275.44,205.71 C275.50,209.33 275.30,209.56 271.12,210.89 C267.24,212.11 266.41,212.09 263.96,210.64 C262.44,209.74 260.59,209.00 259.85,208.99 C257.98,208.98 251.37,202.54 248.42,197.87 C247.08,195.74 245.57,194.00 245.08,194.00 C243.79,194.00 239.00,185.49 239.00,183.19 C239.00,182.12 237.70,179.95 236.12,178.37 C233.58,175.84 217.90,149.68 211.19,136.76 C210.67,135.77 210.15,134.84 209.63,134.02 ZM 94.04 221.72 C93.78,221.40 93.58,221.00 93.34,220.49 C92.71,219.12 92.52,218.00 92.92,218.00 C93.32,218.00 93.46,216.66 93.22,215.02 C92.71,211.57 89.46,209.55 83.84,209.19 C80.51,208.97 79.51,209.61 72.84,216.22 C68.80,220.23 64.60,224.65 63.50,226.06 C59.59,231.06 57.00,234.93 57.00,235.77 C57.00,236.24 55.70,237.95 54.11,239.58 C52.52,241.20 47.28,249.27 42.47,257.52 C38.22,264.78 32.30,274.90 28.43,281.53 C30.52,277.92 33.02,273.63 36.01,268.50 C41.15,259.70 48.57,246.88 52.49,240.00 C66.17,216.05 77.27,197.48 79.98,194.00 C81.48,192.07 83.28,189.42 83.98,188.09 C84.67,186.77 86.64,184.07 88.35,182.09 C101.45,166.94 110.22,162.91 116.35,169.22 C117.80,170.71 118.05,171.93 117.50,174.81 C117.11,176.84 116.59,179.61 116.34,180.97 C116.09,182.33 115.44,183.97 114.90,184.62 C114.36,185.27 111.98,189.33 109.60,193.65 C107.23,197.97 102.75,205.86 99.64,211.18 C96.77,216.10 94.39,220.61 94.04,221.72 ZM 181.09 104.25 C178.76,108.51 176.71,112.00 176.53,112.00 C175.91,112.00 173.99,105.68 174.46,105.21 C174.72,104.95 174.42,103.79 173.80,102.63 C171.19,97.75 173.66,32.59 176.64,27.77 C177.06,27.09 176.84,26.98 176.02,27.48 C175.17,28.01 174.89,27.82 175.20,26.89 C176.10,24.20 178.10,25.55 180.79,30.65 C181.67,32.33 183.84,36.34 186.47,41.17 C183.97,36.84 182.19,34.00 181.92,34.00 C181.48,34.00 180.84,34.45 180.50,35.00 C180.16,35.55 180.39,36.00 181.00,36.00 C181.61,36.00 181.84,36.45 181.50,37.00 C180.20,39.10 179.90,43.40 179.03,71.98 C178.17,100.36 178.39,104.00 180.96,104.00 C181.06,104.00 181.20,103.92 181.35,103.77 C181.26,103.94 181.17,104.10 181.09,104.25 ZM 180.47 274.75 C178.83,277.64 177.19,280.00 176.81,280.00 C175.56,280.00 174.59,277.59 173.78,272.50 C173.34,269.75 172.78,266.38 172.54,265.00 C171.71,260.32 174.14,212.53 175.55,205.58 C176.61,200.38 176.68,198.32 175.82,197.29 C174.97,196.26 174.97,195.63 175.83,194.77 C176.45,194.15 177.13,193.83 177.32,194.07 C177.77,194.61 184.70,207.20 190.83,218.47 C187.45,212.41 184.35,207.02 183.87,206.51 C182.50,205.08 181.23,207.56 180.58,212.95 C180.28,215.45 179.52,228.85 178.90,242.73 C177.77,267.98 178.13,277.07 180.47,274.73 ZM 101.54 243.10 C105.82,242.83 107.78,242.10 109.08,240.75 C111.79,237.93 115.98,229.20 115.99,226.36 C116.00,223.45 114.35,223.00 103.67,222.99 C98.49,222.99 96.22,222.95 94.99,222.43 C96.74,222.81 100.77,223.00 107.00,223.00 C108.06,223.00 109.05,222.99 109.97,222.99 C115.74,222.96 118.81,222.94 119.60,224.28 C120.51,225.80 118.46,229.08 114.10,236.08 C113.48,237.06 112.83,238.12 112.12,239.25 C110.85,241.31 109.28,243.03 108.65,243.06 C108.23,243.09 105.41,243.10 101.54,243.10 ZM 80.74 244.31 C80.79,244.26 80.84,244.22 80.88,244.19 C81.86,243.39 84.69,242.95 88.00,243.06 C88.79,243.08 89.54,243.11 90.27,243.13 C84.72,243.24 81.61,243.62 80.78,244.28 C80.77,244.29 80.76,244.30 80.74,244.31 ZM 242.19 293.34 C240.09,289.94 237.40,285.25 233.70,278.74 C236.93,284.35 239.88,289.41 242.10,293.10 C242.13,293.18 242.16,293.25 242.19,293.34 ZM 193.91 80.96 L 201.15 67.92 L 201.16 67.94 L 193.24 82.22 C191.36,85.61 189.27,89.39 187.31,92.93 C188.89,90.02 190.76,86.63 192.67,83.20 L 193.61 81.50 C193.71,81.32 193.81,81.14 193.91,80.96 ZM 251.72 302.00 L 256.76 301.99 C256.01,301.99 255.34,302.01 254.71,302.02 C253.56,302.04 252.59,302.06 251.72,302.00 ZM 37.65 301.92 C34.61,302.04 31.25,302.07 28.20,302.01 C30.78,302.05 33.59,302.03 36.23,301.95 C36.71,301.94 37.19,301.93 37.65,301.92 ZM 183.65 268.10 C183.62,268.30 183.50,268.66 183.30,269.12 C183.45,268.70 183.55,268.34 183.60,268.10 C183.75,267.33 184.29,266.43 184.81,266.10 C184.29,266.43 183.77,267.33 183.65,268.10 ZM 248.74 251.55 C250.62,254.68 252.90,258.60 255.40,263.00 C253.14,259.02 250.75,254.92 248.74,251.55 ZM 207.49 78.12 C206.52,76.86 206.05,76.67 205.75,77.02 C206.07,76.65 206.55,76.84 207.63,78.28 C207.58,78.22 207.53,78.17 207.49,78.12 ZM 206.23 130.01 L 206.24 130.01 C206.33,130.01 206.50,130.12 206.73,130.32 C206.54,130.17 206.38,130.07 206.23,130.01 ZM 210.37 82.49 C210.12,82.07 209.88,81.69 209.65,81.32 L 209.65 81.32 C209.51,81.09 209.36,80.86 209.23,80.65 C209.57,81.19 209.95,81.80 210.37,82.49 ZM 18.48 300.97 C18.48,300.97 18.48,300.96 18.48,300.96 C18.46,300.94 18.45,300.91 18.43,300.89 C18.45,300.91 18.47,300.94 18.48,300.97 Z" fill="rgb(108,79,142)"/>
<path d="M 242.91 242.64 C243.04,241.61 234.57,224.53 233.75,224.17 C233.60,224.10 233.29,223.73 232.79,223.00 L 245.66 223.00 C253.88,223.00 259.13,222.60 259.54,221.94 C259.90,221.36 259.06,219.22 257.68,217.19 C256.30,215.16 251.68,207.43 247.41,200.00 C243.14,192.57 234.05,176.82 227.22,165.00 C226.12,163.11 225.02,161.20 223.95,159.33 C229.51,168.70 234.74,177.00 236.12,178.37 C237.70,179.95 239.00,182.12 239.00,183.19 C239.00,185.49 243.79,194.00 245.08,194.00 C245.57,194.00 247.08,195.74 248.42,197.87 C251.37,202.54 257.98,208.98 259.85,208.99 C260.59,209.00 262.44,209.74 263.96,210.64 C266.41,212.09 267.24,212.11 271.12,210.89 C275.30,209.56 275.50,209.33 275.44,205.71 C275.40,203.22 275.77,202.08 276.54,202.38 C278.55,203.15 277.39,198.75 274.11,193.19 C272.46,190.39 271.10,187.85 271.01,187.40 C271.14,187.94 273.95,192.93 277.35,198.72 C295.79,230.02 304.93,246.52 304.02,246.83 C303.39,247.04 303.24,249.20 303.63,252.48 C304.18,257.18 304.01,257.92 302.19,258.90 C299.52,260.33 294.17,260.30 289.98,258.84 C288.15,258.21 283.38,254.44 279.37,250.46 L 272.07 243.24 L 258.54 243.13 L 258.24 243.13 C249.55,243.06 245.94,243.03 245.30,244.39 C245.05,244.93 245.26,245.70 245.82,246.76 C244.84,245.19 244.16,244.18 243.95,244.00 C243.75,243.82 243.38,243.37 242.91,242.71 C242.90,242.69 242.91,242.66 242.91,242.64 ZM 188.39 107.12 C188.22,107.42 188.05,107.72 187.88,108.01 C183.14,116.17 179.15,122.87 178.05,124.50 C172.80,132.23 163.00,148.83 161.15,153.14 C160.83,153.90 160.14,155.27 159.19,157.04 C160.84,153.68 160.71,152.70 160.00,151.19 C159.31,149.71 158.62,147.58 158.48,146.46 C158.16,143.93 154.53,137.81 153.79,138.55 C153.49,138.84 152.97,138.37 152.63,137.49 C152.24,136.46 152.42,136.14 153.16,136.60 C153.78,136.98 153.47,135.90 152.46,134.20 C151.46,132.50 150.20,131.38 149.66,131.71 C149.13,132.04 149.00,131.81 149.38,131.20 C150.03,130.14 147.26,126.00 145.89,126.00 C144.85,126.00 142.04,132.49 141.69,135.72 C141.51,137.33 140.10,140.87 138.56,143.58 C137.02,146.28 134.39,150.98 132.72,154.00 C129.34,160.13 120.57,175.14 118.12,179.00 C117.31,180.27 116.71,181.25 115.87,182.68 C116.07,182.12 116.24,181.52 116.34,180.97 C116.59,179.61 117.11,176.84 117.50,174.81 C118.05,171.93 117.80,170.71 116.35,169.22 C110.22,162.91 101.45,166.94 88.35,182.09 C86.64,184.07 84.67,186.77 83.98,188.09 C83.28,189.42 81.48,192.07 79.98,194.00 C78.53,195.86 74.69,202.03 69.33,211.04 C72.77,205.06 75.65,199.97 76.70,198.00 C81.22,189.52 88.77,176.38 94.53,167.00 C97.39,162.32 103.45,152.07 107.99,144.21 C114.23,133.41 117.01,129.53 119.37,128.33 C121.09,127.45 123.74,125.36 125.25,123.68 C126.76,122.01 128.01,121.06 128.03,121.57 C128.05,122.08 128.61,121.78 129.28,120.90 C130.27,119.60 132.53,119.30 141.00,119.32 C146.78,119.33 153.69,118.82 156.37,118.18 C160.96,117.08 161.40,117.16 164.24,119.55 C167.03,121.90 167.38,121.96 169.03,120.47 C170.70,118.97 170.86,119.06 171.50,122.00 C171.88,123.73 172.44,124.89 172.75,124.59 C173.05,124.28 173.83,124.75 174.48,125.64 C175.51,127.06 175.91,126.91 177.92,124.37 C178.72,123.35 183.24,115.85 188.39,107.12 ZM 101.54 243.10 C105.41,243.10 108.23,243.09 108.65,243.06 C109.28,243.03 110.85,241.31 112.12,239.25 C112.83,238.12 113.48,237.06 114.10,236.08 C118.46,229.08 120.51,225.80 119.60,224.28 C118.87,223.06 116.25,222.97 111.41,222.98 C116.69,222.82 121.25,222.40 121.79,221.75 C122.35,221.06 127.72,211.95 133.70,201.50 C139.69,191.05 148.34,176.06 152.93,168.19 C153.92,166.50 154.79,165.00 155.55,163.67 C154.02,166.40 152.32,169.38 150.61,172.29 C145.84,180.43 142.14,187.42 142.39,187.83 C142.64,188.23 141.55,191.47 139.95,195.03 C136.75,202.19 136.44,204.52 138.17,208.68 C138.81,210.23 139.37,211.90 139.42,212.40 C139.46,212.89 140.40,213.63 141.50,214.03 C143.62,214.80 147.81,212.98 151.75,209.59 C152.99,208.52 154.00,207.98 154.00,208.38 C154.00,208.78 156.58,207.01 159.73,204.44 C162.57,202.13 165.79,198.38 168.71,194.14 C167.68,195.93 166.57,197.83 165.46,199.73 C161.03,207.31 152.33,222.27 146.12,233.00 C136.35,249.88 134.24,252.88 130.42,255.33 C127.99,256.88 126.00,258.57 126.00,259.08 C126.00,260.58 121.35,260.13 120.00,258.50 C118.52,256.72 115.85,256.55 114.27,258.13 C112.73,259.67 110.12,258.52 110.10,256.30 C110.09,255.31 109.81,253.15 109.48,251.50 C109.14,249.85 108.90,247.32 108.94,245.87 L 109.01 243.24 L 99.89 243.18 C100.47,243.16 101.03,243.13 101.54,243.10 ZM 175.12 27.16 C174.96,27.85 175.26,27.96 176.02,27.48 C176.84,26.98 177.06,27.09 176.64,27.77 C173.66,32.59 171.19,97.75 173.80,102.63 C174.42,103.79 174.72,104.95 174.46,105.21 C174.16,105.51 174.82,108.15 175.51,110.05 C175.30,109.65 175.09,109.21 174.86,108.75 C174.01,106.96 171.85,102.63 170.06,99.12 L 166.81 92.74 L 167.14 66.82 L 167.47 40.89 L 171.48 33.20 C172.76,30.76 174.09,28.57 175.12,27.16 ZM 173.78 272.50 C174.18,275.03 174.63,276.90 175.12,278.13 C173.96,276.41 172.17,273.36 169.43,268.50 L 166.62 263.50 L 166.84 245.87 C166.97,236.18 167.27,227.18 167.53,225.87 C167.78,224.57 168.29,219.90 168.65,215.50 C169.17,209.28 170.07,206.00 172.70,200.75 C173.59,198.97 174.48,197.35 175.20,196.15 C175.25,196.49 175.46,196.85 175.82,197.29 C176.68,198.32 176.61,200.38 175.55,205.58 C174.14,212.53 171.71,260.32 172.54,265.00 C172.78,266.38 173.34,269.75 173.78,272.50 ZM 205.80 177.47 C202.13,171.51 200.96,170.22 200.26,170.47 C199.58,170.72 197.83,169.82 196.37,168.46 C194.90,167.11 192.65,166.00 191.35,166.00 C188.42,166.00 188.37,164.45 191.07,157.69 C191.58,156.40 192.26,154.86 193.05,153.17 C193.02,153.33 193.00,153.47 193.00,153.59 C193.00,154.50 195.02,158.58 197.50,162.66 C199.98,166.74 202.00,170.33 202.00,170.65 C202.00,170.94 203.66,173.92 205.80,177.47 ZM 185.24 208.23 C188.95,214.81 193.13,222.37 196.08,227.90 C195.29,226.43 194.44,224.93 193.60,223.49 C192.68,221.82 191.74,220.12 190.83,218.47 C188.97,215.06 187.04,211.52 185.24,208.23 ZM 113.62 186.62 C112.65,188.34 111.41,190.54 109.76,193.50 C107.30,197.90 102.75,205.86 99.64,211.18 C102.75,205.86 107.23,197.97 109.60,193.65 C111.09,190.95 112.58,188.35 113.62,186.62 ZM 51.82 241.18 C47.91,248.01 41.37,259.33 36.55,267.58 C38.19,264.75 39.87,261.84 41.51,259.00 C44.48,253.85 48.16,247.49 51.82,241.18 ZM 174.94 183.22 C174.96,183.17 174.98,183.12 175.00,183.08 C175.95,180.94 176.26,180.83 177.56,182.13 C177.65,182.23 177.78,182.37 177.93,182.56 C176.55,181.04 175.85,181.52 174.94,183.22 ZM 28.17 281.98 L 26.98 284.00 C23.05,290.73 20.79,294.61 19.57,296.96 C20.66,294.72 22.55,291.41 25.49,286.50 C26.09,285.51 27.01,283.94 28.17,281.98 ZM 91.51 243.16 C85.19,243.23 81.75,243.58 80.82,244.25 C81.69,243.61 84.79,243.24 90.27,243.13 C90.69,243.14 91.11,243.15 91.51,243.16 ZM 222.08 205.23 C220.57,202.63 218.88,199.73 217.00,196.50 C214.04,191.39 211.62,187.24 209.64,183.87 C211.79,187.51 214.25,191.70 216.16,195.00 C217.78,197.82 219.96,201.57 222.08,205.23 ZM 181.09 104.25 C178.76,108.51 176.76,112.00 176.64,112.00 C176.63,112.00 176.61,111.99 176.58,111.96 C176.97,111.56 178.91,108.24 181.09,104.25 ZM 201.86 136.51 C202.35,135.64 202.86,134.72 203.40,133.76 C203.83,133.00 204.27,132.29 204.68,131.70 C204.22,132.47 203.63,133.46 203.03,134.50 C202.62,135.19 202.23,135.86 201.86,136.51 ZM 267.10 301.66 C264.20,301.87 260.72,301.99 256.80,301.99 C260.06,301.99 264.00,301.85 267.10,301.66 ZM 178.17 26.61 C177.59,25.97 177.07,25.61 176.62,25.55 C176.68,25.52 176.74,25.50 176.79,25.50 C177.09,25.50 177.59,25.92 178.17,26.61 ZM 254.84 262.00 C255.60,263.34 256.35,264.68 257.05,265.90 C256.52,264.97 255.96,263.98 255.40,263.00 C253.29,259.28 251.34,255.91 249.64,253.07 C251.24,255.73 253.24,259.16 254.84,262.00 ZM 273.67 300.81 C275.07,300.44 276.00,299.98 276.00,299.58 C276.00,300.04 275.17,300.46 273.67,300.81 ZM 209.63 134.02 C210.04,134.67 210.45,135.39 210.86,136.15 C210.23,135.03 209.63,134.04 209.06,133.19 C209.25,133.46 209.44,133.73 209.63,134.02 ZM 205.88 76.90 C205.83,76.93 205.79,76.97 205.75,77.02 L 205.75 77.02 C205.73,77.03 205.71,77.04 205.69,77.06 C205.65,77.12 205.47,77.40 205.20,77.87 C205.28,77.71 205.33,77.59 205.37,77.50 C205.50,77.16 205.66,76.94 205.88,76.90 ZM 197.84 231.23 C198.53,232.56 199.08,233.64 199.44,234.41 C199.24,234.02 199.01,233.58 198.76,233.09 C198.48,232.51 198.17,231.89 197.84,231.23 ZM 176.83 280.00 C176.83,280.00 176.82,280.00 176.82,280.00 C177.21,279.96 178.84,277.62 180.46,274.75 C178.83,277.64 177.20,280.00 176.83,280.00 ZM 176.52 194.21 C176.64,194.09 176.73,194.02 176.79,194.02 C176.80,194.02 176.82,194.03 176.84,194.05 C176.74,194.09 176.63,194.14 176.52,194.21 ZM 96.26 222.63 C95.75,222.57 95.33,222.51 94.99,222.43 C94.98,222.43 94.96,222.42 94.94,222.41 C95.29,222.49 95.74,222.56 96.26,222.63 ZM 20.01 301.52 C19.17,301.39 18.64,301.22 18.52,301.03 C18.65,301.22 19.18,301.38 20.01,301.52 ZM 206.23 130.01 C206.38,130.07 206.54,130.17 206.73,130.32 C206.74,130.33 206.76,130.35 206.77,130.36 C206.57,130.19 206.39,130.07 206.23,130.01 ZM 27.08 301.99 C27.45,302.00 27.82,302.01 28.20,302.01 C27.82,302.01 27.44,302.00 27.06,301.99 Z" fill="rgb(133,104,170)"/>
<path d="M 100.55 243.18 L 109.01 243.24 L 108.94 245.87 C108.90,247.32 109.14,249.85 109.48,251.50 C109.81,253.15 110.09,255.31 110.10,256.30 C110.12,258.52 112.73,259.67 114.27,258.13 C115.85,256.55 118.52,256.72 120.00,258.50 C121.35,260.13 126.00,260.58 126.00,259.08 C126.00,258.57 127.99,256.88 130.42,255.33 C134.24,252.88 136.35,249.88 146.12,233.00 C152.33,222.27 161.03,207.31 165.46,199.73 C166.57,197.83 167.68,195.93 168.71,194.14 L 168.73 194.12 C167.43,196.36 166.02,198.78 164.58,201.24 C159.68,209.63 148.40,229.10 139.51,244.50 C130.63,259.90 119.60,278.91 115.01,286.75 L 106.66 301.00 L 91.83 301.00 C83.67,301.00 77.02,300.66 77.03,300.25 C77.07,299.55 85.71,284.27 101.29,257.39 C105.03,250.95 107.86,245.09 107.59,244.37 C107.36,243.78 104.42,243.38 100.55,243.18 ZM 276.44 250.36 L 273.19 244.35 L 279.37 250.46 C283.38,254.44 288.15,258.21 289.98,258.84 C294.17,260.30 299.52,260.33 302.19,258.90 C304.01,257.92 304.18,257.18 303.63,252.48 C303.24,249.20 303.39,247.04 304.02,246.83 C304.59,246.64 301.22,240.09 294.09,227.54 C297.74,233.91 301.76,240.95 306.06,248.50 C311.38,257.85 320.07,273.06 325.37,282.31 C330.67,291.55 335.00,299.54 335.00,300.06 C335.00,300.60 328.92,301.00 320.57,301.00 L 306.14 301.00 L 304.16 298.22 C303.07,296.69 301.10,293.43 299.79,290.97 C298.47,288.51 293.54,279.98 288.84,272.00 C284.14,264.02 278.56,254.29 276.44,250.36 ZM 176.69 125.83 C175.68,126.89 175.26,126.71 174.48,125.64 C173.83,124.75 173.05,124.28 172.75,124.59 C172.44,124.89 171.88,123.73 171.50,122.00 C170.86,119.06 170.70,118.97 169.03,120.47 C167.38,121.96 167.03,121.90 164.24,119.55 C161.40,117.16 160.96,117.08 156.37,118.18 C153.69,118.82 146.78,119.33 141.00,119.32 C132.53,119.30 130.27,119.60 129.28,120.90 C128.61,121.78 128.05,122.08 128.03,121.57 C128.01,121.06 126.76,122.01 125.25,123.68 C123.74,125.36 121.09,127.45 119.37,128.33 C117.01,129.53 114.23,133.41 107.99,144.21 C111.98,137.28 115.00,131.85 115.00,131.46 C115.00,131.09 117.85,125.99 121.33,120.14 C124.80,114.29 131.87,102.18 137.03,93.24 C142.19,84.29 146.81,77.10 147.30,77.27 C148.12,77.54 150.21,81.02 166.35,109.00 C169.68,114.78 173.41,120.98 174.63,122.78 ZM 166.62 263.39 C165.07,260.56 163.29,257.30 161.27,253.55 C158.30,248.08 155.12,242.33 154.20,240.76 C152.55,237.96 152.59,237.77 156.73,229.71 C159.05,225.19 163.03,217.90 165.59,213.50 C168.14,209.10 171.54,202.91 173.14,199.75 C173.85,198.34 174.57,197.05 175.19,196.05 C175.19,196.08 175.19,196.12 175.20,196.15 C174.48,197.35 173.59,198.97 172.70,200.75 C170.07,206.00 169.17,209.28 168.65,215.50 C168.29,219.90 167.78,224.57 167.53,225.87 C167.27,227.18 166.97,236.18 166.84,245.87 ZM 174.15 28.58 C173.32,29.87 172.39,31.47 171.48,33.20 L 167.47 40.89 L 167.14 66.82 L 166.81 92.74 L 170.06 99.12 C170.93,100.82 171.88,102.71 172.73,104.42 C172.05,103.19 171.29,101.87 170.52,100.58 C164.06,89.81 153.00,68.99 153.02,67.67 C153.05,66.52 156.24,60.38 163.00,48.50 C164.88,45.20 168.46,38.67 170.96,34.00 C172.06,31.94 173.18,30.05 174.15,28.58 ZM 160.00 151.19 C160.06,151.32 160.12,151.44 160.17,151.56 L 159.34 150.10 C150.81,135.11 147.69,130.00 147.06,130.00 C146.66,130.00 145.70,131.23 144.92,132.74 C144.14,134.24 141.74,138.41 139.58,141.99 C138.66,143.53 137.55,145.41 136.46,147.29 C137.24,145.90 137.98,144.60 138.56,143.58 C140.10,140.87 141.51,137.33 141.69,135.72 C142.04,132.49 144.85,126.00 145.89,126.00 C147.26,126.00 150.03,130.14 149.38,131.20 C149.00,131.81 149.13,132.04 149.66,131.71 C150.20,131.38 151.46,132.50 152.46,134.20 C153.47,135.90 153.78,136.98 153.16,136.60 C152.42,136.14 152.24,136.46 152.63,137.49 C152.97,138.37 153.49,138.84 153.79,138.55 C154.53,137.81 158.16,143.93 158.48,146.46 C158.62,147.58 159.31,149.71 160.00,151.19 ZM 286.83 214.92 C284.01,210.06 280.85,204.65 277.35,198.72 C276.55,197.35 275.77,196.02 275.06,194.79 C275.16,194.95 275.25,195.11 275.35,195.27 C277.74,199.25 281.70,206.02 286.83,214.92 ZM 247.28 243.39 C249.06,243.09 252.08,243.08 256.75,243.12 C252.07,243.11 249.07,243.19 247.28,243.39 ZM 246.61 248.03 C246.33,247.57 246.06,247.15 245.82,246.76 C245.48,246.12 245.27,245.59 245.21,245.15 C245.48,245.86 245.98,246.90 246.61,248.03 ZM 80.79 244.28 C80.80,244.27 80.81,244.26 80.82,244.25 C81.43,243.81 83.11,243.51 85.97,243.33 C83.38,243.54 81.42,243.85 80.79,244.28 ZM 96.46 163.80 C95.72,165.03 95.07,166.12 94.53,167.00 C91.30,172.27 87.50,178.72 83.99,184.87 C87.49,178.73 91.29,172.28 94.52,167.00 C95.14,165.99 95.79,164.92 96.46,163.80 ZM 118.12 179.00 C119.28,177.18 121.83,172.89 124.57,168.21 C121.90,172.79 119.37,177.04 118.12,179.00 ZM 188.09 213.32 C191.02,218.55 193.96,223.92 196.18,228.08 C196.15,228.02 196.11,227.96 196.08,227.90 C193.87,223.76 190.97,218.48 188.09,213.32 ZM 176.52 194.21 C176.49,194.23 176.47,194.25 176.44,194.27 C176.59,194.10 176.70,194.02 176.78,194.02 L 176.78 194.02 C176.72,194.03 176.63,194.09 176.52,194.21 ZM 175.84 110.92 C176.10,111.54 176.35,111.96 176.51,112.00 C176.50,112.00 176.50,112.00 176.50,112.00 C176.36,112.00 176.11,111.56 175.84,110.92 ZM 174.94 183.22 C175.68,181.84 176.28,181.26 177.23,181.92 C176.28,181.25 175.67,181.85 174.92,183.26 ZM 197.84 231.23 C197.82,231.19 197.80,231.15 197.78,231.10 C198.49,232.48 199.06,233.61 199.44,234.41 C199.08,233.64 198.53,232.56 197.84,231.23 ZM 205.12 78.01 C205.25,77.76 205.33,77.58 205.37,77.50 C205.33,77.59 205.28,77.71 205.20,77.87 C205.17,77.92 205.14,77.96 205.12,78.01 ZM 153.57 167.10 C153.36,167.46 153.15,167.82 152.93,168.19 C152.24,169.37 151.47,170.70 150.63,172.16 C151.49,170.67 152.28,169.30 152.99,168.10 Z" fill="rgb(155,126,196)"/>
<path d="M 0.00 155.00 L 0.00 0.00 L 172.00 0.00 L 344.00 0.00 L 344.00 155.00 L 344.00 310.00 L 172.00 310.00 L 0.00 310.00 L 0.00 155.00 ZM 47.15 300.75 C47.99,300.06 51.29,294.77 54.48,289.00 C57.67,283.23 61.26,277.15 62.45,275.50 C65.04,271.91 68.10,266.57 74.49,254.50 C77.12,249.55 79.92,244.97 80.72,244.32 C82.88,242.58 106.92,242.63 107.59,244.37 C107.86,245.09 105.03,250.95 101.29,257.39 C85.71,284.27 77.07,299.55 77.03,300.25 C77.02,300.66 83.67,301.00 91.83,301.00 L 106.66 301.00 L 115.01 286.75 C119.60,278.91 130.63,259.90 139.51,244.50 C148.40,229.10 159.68,209.63 164.58,201.24 C169.49,192.85 174.11,184.81 174.86,183.38 C176.58,180.08 177.47,180.89 183.31,191.05 C185.66,195.15 193.70,209.07 201.16,222.00 C208.63,234.93 221.16,256.75 229.01,270.50 C248.47,304.61 246.17,302.00 256.80,301.99 C268.21,301.98 276.00,301.00 276.00,299.58 C276.00,298.67 264.30,277.75 260.02,271.00 C259.49,270.17 257.16,266.12 254.84,262.00 C252.51,257.88 249.35,252.50 247.81,250.05 C246.26,247.61 245.00,245.03 245.00,244.32 C245.00,243.33 248.18,243.06 258.79,243.13 L 272.58 243.21 L 276.44 250.36 C278.56,254.29 284.14,264.02 288.84,272.00 C293.54,279.98 298.47,288.51 299.79,290.97 C301.10,293.43 303.07,296.69 304.16,298.22 L 306.14 301.00 L 320.57 301.00 C328.92,301.00 335.00,300.60 335.00,300.06 C335.00,299.54 330.67,291.55 325.37,282.31 C320.07,273.06 311.38,257.85 306.06,248.50 C291.54,222.99 280.21,203.35 275.35,195.27 C272.96,191.29 271.00,187.76 271.00,187.42 C271.00,187.08 270.17,185.61 269.15,184.15 C268.14,182.69 265.95,179.02 264.30,176.00 C262.64,172.98 258.23,165.32 254.50,159.00 C250.76,152.68 245.58,143.68 242.99,139.00 C240.39,134.32 235.98,126.68 233.19,122.00 C230.41,117.32 226.22,110.12 223.89,106.00 C208.21,78.24 206.26,75.24 205.37,77.50 C204.67,79.27 180.20,121.42 178.50,123.78 L 176.86 126.07 L 174.63 122.78 C173.41,120.98 169.68,114.78 166.35,109.00 C150.21,81.02 148.12,77.54 147.30,77.27 C146.81,77.10 142.19,84.29 137.03,93.24 C131.87,102.18 124.80,114.29 121.33,120.14 C117.85,125.99 115.00,131.09 115.00,131.46 C115.00,132.25 102.21,154.45 94.52,167.00 C88.75,176.41 81.19,189.57 76.70,198.00 C75.09,201.02 69.17,211.38 63.55,221.00 C57.93,230.62 48.01,247.73 41.51,259.00 C35.01,270.27 27.80,282.65 25.49,286.50 C19.44,296.59 17.84,299.93 18.52,301.03 C19.44,302.53 45.28,302.27 47.15,300.75 ZM 180.47 274.75 C182.10,271.86 183.53,268.87 183.65,268.10 C183.77,267.33 184.29,266.43 184.81,266.10 C185.33,265.77 189.16,259.25 193.32,251.61 C200.31,238.79 200.80,237.51 199.70,234.98 C197.28,229.42 177.48,194.04 176.78,194.02 C176.38,194.01 174.74,196.59 173.14,199.75 C171.54,202.91 168.14,209.10 165.59,213.50 C163.03,217.90 159.05,225.19 156.73,229.71 C152.59,237.77 152.55,237.96 154.20,240.76 C155.12,242.33 158.30,248.08 161.27,253.55 C172.29,273.91 175.87,280.00 176.83,280.00 C177.20,280.00 178.83,277.64 180.47,274.75 ZM 181.09 104.25 C183.42,99.99 188.88,90.07 193.24,82.22 L 201.16 67.94 L 192.33 51.87 C187.47,43.04 182.28,33.49 180.79,30.65 C179.30,27.82 177.50,25.50 176.79,25.50 C176.08,25.50 173.46,29.33 170.96,34.00 C168.46,38.67 164.88,45.20 163.00,48.50 C156.24,60.38 153.05,66.52 153.02,67.67 C153.00,68.99 164.06,89.81 170.52,100.58 C172.85,104.47 175.07,108.64 175.45,109.83 C175.82,111.02 176.30,112.00 176.50,112.00 C176.70,112.00 178.76,108.51 181.09,104.25 ZM 94.00 221.93 C94.00,221.34 96.54,216.50 99.64,211.18 C102.75,205.86 107.30,197.90 109.76,193.50 C115.39,183.42 116.17,182.07 118.12,179.00 C120.82,174.76 129.53,159.79 132.68,154.00 C134.32,150.98 137.43,145.57 139.58,141.99 C141.74,138.41 144.14,134.24 144.92,132.74 C145.70,131.23 146.66,130.00 147.06,130.00 C147.69,130.00 150.81,135.11 159.34,150.10 L 161.38 153.70 L 152.99 168.10 C148.37,176.02 139.69,191.05 133.70,201.50 C127.72,211.95 122.35,221.06 121.79,221.75 C120.44,223.38 94.00,223.55 94.00,221.93 ZM 227.04 213.75 C224.07,208.66 219.17,200.23 216.16,195.00 C213.14,189.77 208.72,182.29 206.34,178.36 C203.95,174.44 202.00,170.97 202.00,170.65 C202.00,170.33 199.98,166.74 197.50,162.66 C195.02,158.58 193.00,154.50 193.00,153.59 C193.00,152.12 195.29,147.76 203.03,134.50 C204.31,132.30 205.49,130.32 205.66,130.11 C206.35,129.19 208.90,132.38 211.74,137.74 C213.42,140.91 220.38,153.18 227.22,165.00 C234.05,176.82 243.14,192.57 247.41,200.00 C251.68,207.43 256.30,215.16 257.68,217.19 C259.06,219.22 259.90,221.36 259.54,221.94 C259.13,222.60 253.88,223.00 245.66,223.00 L 232.44 223.00 L 227.04 213.75 Z" fill="rgb(254,254,254)"/>
</g>
</svg>